# xmcd
#
# Track frame offsets: 
#        150
#        21376
#        38477
#        51419
#        71032
#        87725
#        102314
#        124290
#        139891
#        160142
#        183130
#        202507
#        225010
#        247907
#        269362
#        304855
#        320317
#        341692
#
# Disc length: 4796 seconds
#
# Revision: 0
# Processed by: cddbd v1.5PL3 Copyright (c) Steve Scherf et al.
# Submitted via: ExactAudioCopy v0.95a4
#
DISCID=f412ba12
DTITLE=Stevie Ray Vaughan - Family Style and A tribute to Stevie Ray Vau
DTITLE=ghan
DYEAR=1900
DGENRE=Blues
TTITLE0=Hard to be
TTITLE1=White boots
TTITLE2=D/FW
TTITLE3=Good texan
TTITLE4=Hillbillies from outerspase
TTITLE5=Long way from home
TTITLE6=Tick tock
TTITLE7=Telephone song
TTITLE8=Baboom - mama said
TTITLE9=Brothers
TTITLE10=Pride and joy
TTITLE11=Texas flood
TTITLE12=Telephone song
TTITLE13=Long way from home
TTITLE14=Ain't gone 'n give up your love
TTITLE15=Love struck baby
TTITLE16=Cold shot
TTITLE17=Six string down
EXTD=
EXTT0=
EXTT1=
EXTT2=
EXTT3=
EXTT4=
EXTT5=
EXTT6=
EXTT7=
EXTT8=
EXTT9=
EXTT10=
EXTT11=
EXTT12=
EXTT13=
EXTT14=
EXTT15=
EXTT16=
EXTT17=
PLAYORDER=
